<svg width="1200" height="900" viewBox="0 0 1200 900" fill="none" xmlns="http://www.w3.org/2000/svg">
  <defs>
    <linearGradient id="paper" x1="0" y1="0" x2="1200" y2="900" gradientUnits="userSpaceOnUse">
      <stop stop-color="#F8EEDF"/>
      <stop offset="1" stop-color="#F2E4CF"/>
    </linearGradient>
    <filter id="shadow" x="40" y="20" width="1120" height="860" filterUnits="userSpaceOnUse" color-interpolation-filters="sRGB">
      <feDropShadow dx="0" dy="10" stdDeviation="18" flood-color="#3F3327" flood-opacity="0.18"/>
    </filter>
  </defs>

  <rect width="1200" height="900" fill="#EEE5D8"/>
  <g filter="url(#shadow)">
    <path d="M70 72C98 42 146 28 214 28H1002C1078 28 1122 44 1148 74V808C1118 838 1072 856 1006 856H202C134 856 92 842 70 810V72Z" fill="url(#paper)"/>
  </g>

  <path d="M74 64C98 44 134 32 190 32H1014C1072 32 1110 46 1128 70" stroke="#D0BEA0" stroke-width="4"/>
  <path d="M86 86V820" stroke="#4B4135" stroke-width="4"/>
  <path d="M1114 86V820" stroke="#4B4135" stroke-width="4"/>
  <path d="M100 60V812" stroke="#A36C3D" stroke-width="10"/>
  <path d="M1100 60V812" stroke="#A36C3D" stroke-width="10"/>

  <text x="338" y="104" fill="#1E1915" font-size="70" font-family="Georgia, serif" font-weight="700" letter-spacing="8">JAGUAR CITY</text>
  <path d="M74 40C96 46 116 62 128 84C118 76 108 74 92 74C80 74 66 78 54 86C58 68 62 52 74 40Z" fill="#4C663D"/>
  <path d="M60 82C42 94 28 114 22 136C40 128 56 116 68 102L60 82Z" fill="#6D8758"/>
  <path d="M48 136C30 152 18 172 14 194C34 184 50 168 64 150L48 136Z" fill="#577347"/>
  <path d="M88 56C76 82 68 108 64 138" stroke="#7F9275" stroke-width="3"/>
  <path d="M1034 108C1044 98 1060 94 1074 100C1062 104 1052 114 1046 126C1042 122 1038 116 1034 108Z" fill="#221D18"/>
  <path d="M1082 98C1092 88 1108 84 1122 90C1110 96 1100 106 1094 118C1090 112 1086 106 1082 98Z" fill="#221D18"/>

  <path d="M174 458C194 434 222 422 254 422H946C976 422 1002 434 1022 458L1038 478C1012 468 990 464 956 464H244C212 464 188 468 162 478L174 458Z" fill="#F7EFE1"/>
  <image href="/uploads/site-media/jaguar-city-cover.png" x="166" y="438" width="868" height="290" preserveAspectRatio="xMidYMid slice"/>
  <path d="M166 438H1034V728H166V438Z" stroke="#EEE1CC" stroke-width="16"/>

  <path d="M120 732C146 706 182 692 224 692C270 692 304 710 320 736C290 726 254 722 220 722C186 722 150 724 120 732Z" fill="#F8EFE2"/>
  <path d="M170 650L236 620L304 660L270 720H162L170 650Z" fill="#7C5A2C" opacity="0.95"/>
  <path d="M178 654L236 628L294 662L264 698H174L178 654Z" fill="#7BA153"/>
  <path d="M166 698H272V718H166V698Z" fill="#674728"/>

  <text x="270" y="792" fill="#5B3920" font-size="44" font-family="Georgia, serif" font-weight="700">New Residential Plot</text>
  <text x="314" y="840" fill="#5B3920" font-size="44" font-family="Georgia, serif" font-weight="700">Projects by Jaguar</text>
  <text x="286" y="888" fill="#5B3920" font-size="44" font-family="Georgia, serif" font-weight="700">Properties Attract Buyers</text>
  <path d="M834 850H1006" stroke="#2F251C" stroke-width="4" stroke-linecap="round"/>
  <text x="272" y="916" fill="#2A2722" font-size="24" font-family="Arial, sans-serif">New plotted developments introduced by Jaguar Properties</text>
  <text x="310" y="946" fill="#2A2722" font-size="24" font-family="Arial, sans-serif">are gaining attention from buyers seeking affordable</text>
  <text x="430" y="976" fill="#2A2722" font-size="24" font-family="Arial, sans-serif">land investment opportunities.</text>
</svg>
