<svg width="1200" height="900" viewBox="0 0 1200 900" fill="none" xmlns="http://www.w3.org/2000/svg">
  <defs>
    <linearGradient id="paper" x1="0" y1="0" x2="1200" y2="900" gradientUnits="userSpaceOnUse">
      <stop stop-color="#F6EEDF"/>
      <stop offset="1" stop-color="#F1E6D3"/>
    </linearGradient>
    <filter id="shadow" x="40" y="20" width="1120" height="860" filterUnits="userSpaceOnUse" color-interpolation-filters="sRGB">
      <feDropShadow dx="0" dy="10" stdDeviation="18" flood-color="#3F3327" flood-opacity="0.18"/>
    </filter>
  </defs>

  <rect width="1200" height="900" fill="#EFE7DA"/>
  <g filter="url(#shadow)">
    <path d="M70 72C98 42 146 28 214 28H1002C1078 28 1122 44 1148 74V808C1118 838 1072 856 1006 856H202C134 856 92 842 70 810V72Z" fill="url(#paper)"/>
    <path d="M90 52C104 36 130 28 164 28H1030C1078 28 1108 38 1128 62V824C1100 842 1072 852 1022 852H180C136 852 108 844 90 826V52Z" stroke="#D4C2A6" stroke-width="4"/>
    <path d="M120 54H1080" stroke="#4D4336" stroke-width="4"/>
    <path d="M86 86V820" stroke="#4D4336" stroke-width="4"/>
    <path d="M1114 86V820" stroke="#4D4336" stroke-width="4"/>
    <path d="M100 60V812" stroke="#A46F3E" stroke-width="10"/>
    <path d="M1100 60V812" stroke="#A46F3E" stroke-width="10"/>
  </g>

  <text x="110" y="110" fill="#1D1814" font-size="64" font-family="Georgia, serif" font-weight="700">Jaguar Properties Strengthens</text>
  <text x="118" y="176" fill="#28402E" font-size="64" font-family="Georgia, serif" font-weight="700">Investment Opportunities in</text>
  <text x="280" y="242" fill="#28402E" font-size="64" font-family="Georgia, serif" font-weight="700">North Bangalore</text>
  <path d="M330 268H870" stroke="#2F251C" stroke-width="4" stroke-linecap="round"/>
  <text x="182" y="308" fill="#2B2722" font-size="26" font-family="Arial, sans-serif">Jaguar Properties continues to create attractive</text>
  <text x="176" y="342" fill="#2B2722" font-size="26" font-family="Arial, sans-serif">investment opportunities through premium plotted</text>
  <text x="276" y="376" fill="#2B2722" font-size="26" font-family="Arial, sans-serif">developments in the fast-growing North Bangalore region.</text>

  <path d="M72 40C96 44 116 60 130 82C118 74 110 72 92 72C78 72 64 76 52 84C56 66 62 52 72 40Z" fill="#436038"/>
  <path d="M58 78C42 90 28 110 22 130C38 122 54 110 66 96L58 78Z" fill="#688557"/>
  <path d="M46 130C30 146 18 164 12 186C32 176 50 160 62 142L46 130Z" fill="#557245"/>
  <path d="M38 188C24 204 14 222 8 242C26 234 44 218 56 202L38 188Z" fill="#6C8A59"/>
  <path d="M86 54C74 80 66 106 62 136" stroke="#7C8E72" stroke-width="3"/>

  <path d="M180 462C198 438 226 426 256 426H942C972 426 998 438 1016 462L1036 486C1012 474 988 470 956 470H244C214 470 188 474 164 486L180 462Z" fill="#F7EFE1"/>
  <image href="/uploads/site-media/jaguar-city-cover.png" x="170" y="446" width="860" height="274" preserveAspectRatio="xMidYMid slice"/>
  <path d="M170 446H1030V720H170V446Z" stroke="#E9DDCA" stroke-width="16"/>
  <text x="362" y="120" fill="#1D1B18" font-size="70" font-family="Georgia, serif" font-weight="700" letter-spacing="8">JAGUAR CITY</text>

  <text x="170" y="780" fill="#28402E" font-size="44" font-family="Georgia, serif" font-weight="700">Jaguar Properties Strengthens</text>
  <text x="248" y="828" fill="#28402E" font-size="44" font-family="Georgia, serif" font-weight="700">Investment Opportunities in</text>
  <text x="366" y="872" fill="#28402E" font-size="44" font-family="Georgia, serif" font-weight="700">North Bangalore</text>

  <path d="M1052 122C1062 112 1078 108 1094 112C1080 118 1072 126 1066 138C1060 132 1056 128 1052 122Z" fill="#23201B"/>
  <path d="M1092 106C1100 96 1116 92 1130 98C1116 102 1108 110 1102 122C1098 118 1094 112 1092 106Z" fill="#23201B"/>
</svg>
