<svg width="1200" height="900" viewBox="0 0 1200 900" fill="none" xmlns="http://www.w3.org/2000/svg">
  <defs>
    <linearGradient id="paper" x1="0" y1="0" x2="1200" y2="900" gradientUnits="userSpaceOnUse">
      <stop stop-color="#F8F0E1"/>
      <stop offset="1" stop-color="#F2E5D2"/>
    </linearGradient>
    <filter id="shadow" x="40" y="20" width="1120" height="860" filterUnits="userSpaceOnUse" color-interpolation-filters="sRGB">
      <feDropShadow dx="0" dy="10" stdDeviation="18" flood-color="#3F3327" flood-opacity="0.18"/>
    </filter>
  </defs>

  <rect width="1200" height="900" fill="#EEE6D9"/>
  <g filter="url(#shadow)">
    <path d="M70 72C98 42 146 28 214 28H1002C1078 28 1122 44 1148 74V808C1118 838 1072 856 1006 856H202C134 856 92 842 70 810V72Z" fill="url(#paper)"/>
  </g>

  <path d="M86 86V820" stroke="#4B4135" stroke-width="4"/>
  <path d="M1114 86V820" stroke="#4B4135" stroke-width="4"/>
  <path d="M100 60V812" stroke="#A36C3D" stroke-width="10"/>
  <path d="M1100 60V812" stroke="#A36C3D" stroke-width="10"/>

  <text x="316" y="110" fill="#1D1A16" font-size="70" font-family="Georgia, serif" font-weight="700" letter-spacing="8">JAGUAR CITY</text>
  <path d="M74 40C96 46 116 62 128 84C118 76 108 74 92 74C80 74 66 78 54 86C58 68 62 52 74 40Z" fill="#4C663D"/>
  <path d="M60 82C42 94 28 114 22 136C40 128 56 116 68 102L60 82Z" fill="#6D8758"/>
  <path d="M48 136C30 152 18 172 14 194C34 184 50 168 64 150L48 136Z" fill="#577347"/>
  <path d="M88 56C76 82 68 108 64 138" stroke="#7F9275" stroke-width="3"/>

  <path d="M170 440C190 418 220 406 252 406H948C978 406 1006 418 1024 440L1038 458C1014 448 988 444 954 444H246C214 444 188 448 166 458L170 440Z" fill="#F7EFE1"/>
  <image href="/uploads/site-media/jaguar-city-cover.png" x="166" y="420" width="868" height="282" preserveAspectRatio="xMidYMid slice"/>
  <path d="M166 420H1034V702H166V420Z" stroke="#EEE1CC" stroke-width="16"/>

  <text x="252" y="778" fill="#28402E" font-size="46" font-family="Georgia, serif" font-weight="700">Jaguar Properties Plans</text>
  <text x="178" y="828" fill="#28402E" font-size="46" font-family="Georgia, serif" font-weight="700">Modern Infrastructure in Upcoming Projects</text>
  <path d="M354 850H846" stroke="#2F251C" stroke-width="4" stroke-linecap="round"/>
  <text x="176" y="888" fill="#25221E" font-size="24" font-family="Arial, sans-serif">Upcoming projects by Jaguar Properties will feature modern infrastructure,</text>
  <text x="176" y="918" fill="#25221E" font-size="24" font-family="Arial, sans-serif">wide internal roads, and essential utilities for a comfortable residential environment.</text>
</svg>
